<svg width="493" height="157" viewBox="0 0 493 157" fill="none" xmlns="http://www.w3.org/2000/svg">
<path d="M144 130.607C144 127.932 144 125.225 144 122.486C144 119.747 144 117.04 144 114.365C144.447 114.365 144.893 114.365 145.34 114.365C145.786 114.365 146.228 114.365 146.664 114.365C146.664 117.04 146.664 119.747 146.664 122.486C146.664 125.225 146.664 127.932 146.664 130.607C146.228 130.607 145.786 130.607 145.34 130.607C144.893 130.607 144.447 130.607 144 130.607ZM150.787 130.607C150.787 128.569 150.787 126.511 150.787 124.433C150.787 122.355 150.787 120.296 150.787 118.258C151.203 118.258 151.624 118.258 152.05 118.258C152.477 118.258 152.893 118.258 153.299 118.258C153.299 118.37 153.299 118.473 153.299 118.569C153.299 118.664 153.299 118.768 153.299 118.879C153.573 118.577 153.88 118.342 154.22 118.175C154.56 118.007 154.928 117.924 155.323 117.924C155.902 117.924 156.412 118.131 156.853 118.545C157.295 118.959 157.64 119.552 157.888 120.324C158.137 121.097 158.261 122.024 158.261 123.107C158.261 124.349 158.261 125.599 158.261 126.857C158.261 128.115 158.261 129.365 158.261 130.607C157.855 130.607 157.439 130.607 157.013 130.607C156.587 130.607 156.166 130.607 155.75 130.607C155.75 129.461 155.75 128.298 155.75 127.12C155.75 125.941 155.75 124.779 155.75 123.632C155.75 122.996 155.656 122.482 155.468 122.092C155.28 121.702 154.983 121.507 154.577 121.507C154.171 121.507 153.857 121.69 153.634 122.056C153.41 122.422 153.299 122.948 153.299 123.632C153.299 124.779 153.299 125.941 153.299 127.12C153.299 128.298 153.299 129.461 153.299 130.607C152.893 130.607 152.477 130.607 152.05 130.607C151.624 130.607 151.203 130.607 150.787 130.607ZM162.034 130.607C162.034 128.569 162.034 126.511 162.034 124.433C162.034 122.355 162.034 120.296 162.034 118.258C162.45 118.258 162.871 118.258 163.298 118.258C163.724 118.258 164.14 118.258 164.546 118.258C164.546 118.37 164.546 118.473 164.546 118.569C164.546 118.664 164.546 118.768 164.546 118.879C164.82 118.577 165.127 118.342 165.467 118.175C165.807 118.007 166.175 117.924 166.571 117.924C167.149 117.924 167.659 118.131 168.101 118.545C168.542 118.959 168.887 119.552 169.136 120.324C169.384 121.097 169.509 122.024 169.509 123.107C169.509 124.349 169.509 125.599 169.509 126.857C169.509 128.115 169.509 129.365 169.509 130.607C169.103 130.607 168.687 130.607 168.26 130.607C167.834 130.607 167.413 130.607 166.997 130.607C166.997 129.461 166.997 128.298 166.997 127.12C166.997 125.941 166.997 124.779 166.997 123.632C166.997 122.996 166.903 122.482 166.715 122.092C166.527 121.702 166.231 121.507 165.825 121.507C165.419 121.507 165.104 121.69 164.881 122.056C164.658 122.422 164.546 122.948 164.546 123.632C164.546 124.779 164.546 125.941 164.546 127.12C164.546 128.298 164.546 129.461 164.546 130.607C164.14 130.607 163.724 130.607 163.298 130.607C162.871 130.607 162.45 130.607 162.034 130.607ZM177.011 130.989C176.422 130.989 175.874 130.826 175.367 130.5C174.86 130.173 174.418 129.711 174.043 129.114C173.667 128.517 173.375 127.821 173.167 127.024C172.959 126.228 172.855 125.36 172.855 124.421C172.855 123.481 172.959 122.613 173.167 121.817C173.375 121.021 173.667 120.328 174.043 119.739C174.418 119.15 174.86 118.692 175.367 118.366C175.874 118.039 176.422 117.876 177.011 117.876C177.61 117.876 178.16 118.039 178.663 118.366C179.165 118.692 179.604 119.15 179.98 119.739C180.355 120.328 180.647 121.021 180.855 121.817C181.063 122.613 181.167 123.481 181.167 124.421C181.167 125.36 181.063 126.228 180.855 127.024C180.647 127.821 180.355 128.517 179.98 129.114C179.604 129.711 179.165 130.173 178.663 130.5C178.16 130.826 177.61 130.989 177.011 130.989ZM177.011 127.43C177.508 127.43 177.907 127.148 178.206 126.582C178.505 126.017 178.655 125.297 178.655 124.421C178.655 123.529 178.505 122.808 178.206 122.259C177.907 121.71 177.508 121.435 177.011 121.435C176.514 121.435 176.115 121.71 175.816 122.259C175.517 122.808 175.367 123.529 175.367 124.421C175.367 125.297 175.517 126.017 175.816 126.582C176.115 127.148 176.514 127.43 177.011 127.43ZM186.295 130.607C185.848 128.569 185.394 126.511 184.932 124.433C184.47 122.355 184.016 120.296 183.57 118.258C184.006 118.258 184.445 118.258 184.886 118.258C185.328 118.258 185.767 118.258 186.203 118.258C186.467 119.516 186.733 120.778 187.002 122.044C187.271 123.31 187.533 124.572 187.786 125.83C188.05 124.572 188.314 123.31 188.578 122.044C188.842 120.778 189.101 119.516 189.354 118.258C189.781 118.258 190.212 118.258 190.648 118.258C191.085 118.258 191.516 118.258 191.942 118.258C191.496 120.296 191.042 122.355 190.58 124.433C190.118 126.511 189.664 128.569 189.217 130.607C188.74 130.607 188.253 130.607 187.756 130.607C187.259 130.607 186.772 130.607 186.295 130.607ZM200.023 130.607C200.023 130.48 200.023 130.356 200.023 130.237C200.023 130.118 200.023 130.002 200.023 129.891C199.769 130.225 199.483 130.484 199.163 130.667C198.843 130.85 198.501 130.942 198.136 130.942C197.618 130.942 197.131 130.786 196.674 130.476C196.217 130.165 195.814 129.719 195.464 129.138C195.114 128.557 194.84 127.868 194.642 127.072C194.444 126.276 194.345 125.392 194.345 124.421C194.345 123.433 194.444 122.542 194.642 121.745C194.84 120.949 195.114 120.269 195.464 119.703C195.814 119.138 196.217 118.7 196.674 118.39C197.131 118.079 197.613 117.924 198.12 117.924C198.486 117.924 198.831 118.015 199.155 118.198C199.48 118.382 199.769 118.632 200.023 118.951C200.023 118.823 200.023 118.704 200.023 118.593C200.023 118.481 200.023 118.37 200.023 118.258C200.439 118.258 200.86 118.258 201.287 118.258C201.713 118.258 202.129 118.258 202.535 118.258C202.535 120.296 202.535 122.355 202.535 124.433C202.535 126.511 202.535 128.569 202.535 130.607C202.129 130.607 201.713 130.607 201.287 130.607C200.86 130.607 200.439 130.607 200.023 130.607ZM198.47 127.454C198.958 127.454 199.348 127.176 199.643 126.618C199.937 126.061 200.084 125.328 200.084 124.421C200.084 123.513 199.937 122.785 199.643 122.235C199.348 121.686 198.958 121.411 198.47 121.411C197.973 121.411 197.58 121.682 197.291 122.223C197.001 122.765 196.857 123.497 196.857 124.421C196.857 125.344 197.001 126.081 197.291 126.63C197.58 127.18 197.973 127.454 198.47 127.454ZM207.252 130.607C207.252 129.142 207.252 127.669 207.252 126.188C207.252 124.707 207.252 123.242 207.252 121.793C207.049 121.793 206.843 121.793 206.635 121.793C206.427 121.793 206.221 121.793 206.018 121.793C206.018 121.204 206.018 120.615 206.018 120.026C206.018 119.437 206.018 118.847 206.018 118.258C206.221 118.258 206.427 118.258 206.635 118.258C206.843 118.258 207.049 118.258 207.252 118.258C207.252 117.701 207.252 117.147 207.252 116.598C207.252 116.049 207.252 115.503 207.252 114.962C207.668 114.962 208.089 114.962 208.515 114.962C208.941 114.962 209.357 114.962 209.763 114.962C209.763 115.503 209.763 116.049 209.763 116.598C209.763 117.147 209.763 117.701 209.763 118.258C209.997 118.258 210.235 118.258 210.479 118.258C210.722 118.258 210.961 118.258 211.194 118.258C211.194 118.847 211.194 119.437 211.194 120.026C211.194 120.615 211.194 121.204 211.194 121.793C210.961 121.793 210.722 121.793 210.479 121.793C210.235 121.793 209.997 121.793 209.763 121.793C209.763 123.242 209.763 124.707 209.763 126.188C209.763 127.669 209.763 129.142 209.763 130.607C209.357 130.607 208.941 130.607 208.515 130.607C208.089 130.607 207.668 130.607 207.252 130.607ZM221.33 130.034C220.63 130.496 219.935 130.782 219.245 130.894C218.555 131.005 217.903 130.946 217.289 130.715C216.675 130.484 216.129 130.09 215.652 129.532C215.175 128.975 214.802 128.266 214.533 127.406C214.264 126.547 214.13 125.551 214.13 124.421C214.13 123.481 214.229 122.617 214.427 121.829C214.625 121.041 214.906 120.348 215.272 119.751C215.637 119.154 216.068 118.692 216.565 118.366C217.063 118.039 217.606 117.876 218.194 117.876C218.722 117.876 219.199 118.011 219.625 118.282C220.052 118.553 220.422 118.931 220.737 119.417C221.051 119.902 221.305 120.48 221.498 121.148C221.691 121.817 221.812 122.55 221.863 123.346C221.914 124.142 221.883 124.986 221.772 125.878C220.94 125.878 220.102 125.878 219.26 125.878C218.418 125.878 217.58 125.878 216.748 125.878C216.941 126.483 217.263 126.913 217.715 127.168C218.166 127.422 218.704 127.502 219.328 127.406C219.953 127.311 220.62 127.056 221.33 126.642C221.33 127.199 221.33 127.765 221.33 128.338C221.33 128.911 221.33 129.477 221.33 130.034ZM218.133 121.411C217.839 121.411 217.568 121.538 217.319 121.793C217.07 122.048 216.88 122.438 216.748 122.964C217.205 122.964 217.664 122.964 218.126 122.964C218.588 122.964 219.047 122.964 219.504 122.964C219.382 122.422 219.202 122.028 218.963 121.781C218.725 121.535 218.448 121.411 218.133 121.411ZM231.053 130.607C231.053 127.932 231.053 125.225 231.053 122.486C231.053 119.747 231.053 117.04 231.053 114.365C231.499 114.365 231.946 114.365 232.392 114.365C232.839 114.365 233.28 114.365 233.717 114.365C233.717 117.04 233.717 119.747 233.717 122.486C233.717 125.225 233.717 127.932 233.717 130.607C233.28 130.607 232.839 130.607 232.392 130.607C231.946 130.607 231.499 130.607 231.053 130.607ZM237.84 130.607C237.84 128.569 237.84 126.511 237.84 124.433C237.84 122.355 237.84 120.296 237.84 118.258C238.256 118.258 238.677 118.258 239.103 118.258C239.529 118.258 239.945 118.258 240.351 118.258C240.351 118.37 240.351 118.473 240.351 118.569C240.351 118.664 240.351 118.768 240.351 118.879C240.625 118.577 240.932 118.342 241.272 118.175C241.612 118.007 241.98 117.924 242.376 117.924C242.955 117.924 243.465 118.131 243.906 118.545C244.347 118.959 244.693 119.552 244.941 120.324C245.19 121.097 245.314 122.024 245.314 123.107C245.314 124.349 245.314 125.599 245.314 126.857C245.314 128.115 245.314 129.365 245.314 130.607C244.908 130.607 244.492 130.607 244.066 130.607C243.64 130.607 243.218 130.607 242.802 130.607C242.802 129.461 242.802 128.298 242.802 127.12C242.802 125.941 242.802 124.779 242.802 123.632C242.802 122.996 242.708 122.482 242.521 122.092C242.333 121.702 242.036 121.507 241.63 121.507C241.224 121.507 240.91 121.69 240.686 122.056C240.463 122.422 240.351 122.948 240.351 123.632C240.351 124.779 240.351 125.941 240.351 127.12C240.351 128.298 240.351 129.461 240.351 130.607C239.945 130.607 239.529 130.607 239.103 130.607C238.677 130.607 238.256 130.607 237.84 130.607ZM255.1 126.785C255.1 127.773 254.925 128.581 254.575 129.21C254.225 129.839 253.755 130.297 253.167 130.583C252.578 130.87 251.921 130.993 251.195 130.954C250.47 130.914 249.731 130.727 248.98 130.392C248.98 129.787 248.98 129.166 248.98 128.529C248.98 127.892 248.98 127.271 248.98 126.666C249.407 126.969 249.833 127.203 250.259 127.371C250.685 127.538 251.071 127.637 251.416 127.669C251.761 127.701 252.04 127.657 252.253 127.538C252.466 127.418 252.573 127.215 252.573 126.929C252.573 126.706 252.484 126.531 252.307 126.403C252.129 126.276 251.898 126.16 251.614 126.057C251.33 125.953 251.028 125.826 250.708 125.675C250.388 125.523 250.087 125.308 249.802 125.03C249.518 124.751 249.287 124.377 249.11 123.907C248.932 123.437 248.843 122.828 248.843 122.08C248.843 121.188 249.008 120.428 249.338 119.799C249.668 119.17 250.112 118.692 250.67 118.366C251.228 118.039 251.852 117.876 252.542 117.876C253.233 117.876 253.938 118.059 254.658 118.425C254.658 119.03 254.658 119.651 254.658 120.288C254.658 120.925 254.658 121.546 254.658 122.152C254.09 121.722 253.557 121.435 253.06 121.292C252.563 121.148 252.162 121.128 251.857 121.232C251.553 121.335 251.401 121.554 251.401 121.889C251.401 122.112 251.49 122.283 251.667 122.402C251.845 122.522 252.073 122.629 252.352 122.725C252.631 122.82 252.931 122.948 253.25 123.107C253.57 123.266 253.869 123.485 254.149 123.764C254.428 124.043 254.656 124.425 254.834 124.91C255.011 125.396 255.1 126.021 255.1 126.785ZM261.05 134.429C260.644 134.429 260.228 134.429 259.801 134.429C259.375 134.429 258.954 134.429 258.538 134.429C258.538 131.77 258.538 129.075 258.538 126.344C258.538 123.613 258.538 120.917 258.538 118.258C258.954 118.258 259.375 118.258 259.801 118.258C260.228 118.258 260.644 118.258 261.05 118.258C261.05 118.37 261.05 118.481 261.05 118.593C261.05 118.704 261.05 118.823 261.05 118.951C261.303 118.632 261.593 118.382 261.917 118.198C262.242 118.015 262.587 117.924 262.952 117.924C263.46 117.924 263.942 118.079 264.399 118.39C264.855 118.7 265.259 119.142 265.609 119.715C265.959 120.288 266.233 120.973 266.431 121.769C266.629 122.566 266.728 123.449 266.728 124.421C266.728 125.376 266.629 126.252 266.431 127.048C266.233 127.844 265.959 128.533 265.609 129.114C265.259 129.696 264.855 130.145 264.399 130.464C263.942 130.782 263.455 130.942 262.937 130.942C262.572 130.942 262.229 130.85 261.91 130.667C261.59 130.484 261.303 130.225 261.05 129.891C261.05 130.639 261.05 131.395 261.05 132.16C261.05 132.924 261.05 133.681 261.05 134.429ZM262.602 127.454C263.1 127.454 263.493 127.18 263.782 126.63C264.071 126.081 264.216 125.344 264.216 124.421C264.216 123.497 264.071 122.765 263.782 122.223C263.493 121.682 263.1 121.411 262.602 121.411C262.115 121.411 261.725 121.686 261.43 122.235C261.136 122.785 260.989 123.513 260.989 124.421C260.989 125.328 261.136 126.061 261.43 126.618C261.725 127.176 262.115 127.454 262.602 127.454ZM271.536 116.849C271.241 116.849 270.975 116.737 270.737 116.514C270.498 116.292 270.308 115.997 270.166 115.631C270.024 115.264 269.953 114.858 269.953 114.412C269.953 113.967 270.024 113.565 270.166 113.206C270.308 112.848 270.498 112.557 270.737 112.334C270.975 112.111 271.241 112 271.536 112C271.82 112 272.081 112.111 272.32 112.334C272.558 112.557 272.748 112.848 272.891 113.206C273.033 113.565 273.104 113.967 273.104 114.412C273.104 114.858 273.033 115.264 272.891 115.631C272.748 115.997 272.558 116.292 272.32 116.514C272.081 116.737 271.82 116.849 271.536 116.849ZM270.272 130.607C270.272 128.569 270.272 126.511 270.272 124.433C270.272 122.355 270.272 120.296 270.272 118.258C270.688 118.258 271.109 118.258 271.536 118.258C271.962 118.258 272.378 118.258 272.784 118.258C272.784 120.296 272.784 122.355 272.784 124.433C272.784 126.511 272.784 128.569 272.784 130.607C272.378 130.607 271.962 130.607 271.536 130.607C271.109 130.607 270.688 130.607 270.272 130.607ZM276.755 130.607C276.755 128.569 276.755 126.511 276.755 124.433C276.755 122.355 276.755 120.296 276.755 118.258C277.171 118.258 277.592 118.258 278.018 118.258C278.444 118.258 278.861 118.258 279.266 118.258C279.266 118.37 279.266 118.481 279.266 118.593C279.266 118.704 279.266 118.815 279.266 118.927C279.581 118.577 279.936 118.314 280.332 118.139C280.728 117.964 281.159 117.916 281.626 117.995C281.626 118.632 281.626 119.277 281.626 119.93C281.626 120.583 281.626 121.228 281.626 121.865C280.824 121.69 280.231 121.797 279.845 122.187C279.459 122.578 279.266 123.211 279.266 124.086C279.266 125.153 279.266 126.236 279.266 127.335C279.266 128.434 279.266 129.524 279.266 130.607C278.861 130.607 278.444 130.607 278.018 130.607C277.592 130.607 277.171 130.607 276.755 130.607ZM291.686 130.034C290.986 130.496 290.29 130.782 289.6 130.894C288.91 131.005 288.258 130.946 287.644 130.715C287.03 130.484 286.485 130.09 286.008 129.532C285.531 128.975 285.158 128.266 284.889 127.406C284.62 126.547 284.485 125.551 284.485 124.421C284.485 123.481 284.584 122.617 284.782 121.829C284.98 121.041 285.262 120.348 285.627 119.751C285.992 119.154 286.424 118.692 286.921 118.366C287.418 118.039 287.961 117.876 288.55 117.876C289.078 117.876 289.555 118.011 289.981 118.282C290.407 118.553 290.778 118.931 291.092 119.417C291.407 119.902 291.661 120.48 291.853 121.148C292.046 121.817 292.168 122.55 292.219 123.346C292.269 124.142 292.239 124.986 292.127 125.878C291.295 125.878 290.458 125.878 289.616 125.878C288.773 125.878 287.936 125.878 287.104 125.878C287.297 126.483 287.619 126.913 288.07 127.168C288.522 127.422 289.06 127.502 289.684 127.406C290.308 127.311 290.975 127.056 291.686 126.642C291.686 127.199 291.686 127.765 291.686 128.338C291.686 128.911 291.686 129.477 291.686 130.034ZM288.489 121.411C288.195 121.411 287.923 121.538 287.675 121.793C287.426 122.048 287.236 122.438 287.104 122.964C287.56 122.964 288.02 122.964 288.481 122.964C288.943 122.964 289.402 122.964 289.859 122.964C289.737 122.422 289.557 122.028 289.319 121.781C289.08 121.535 288.804 121.411 288.489 121.411ZM301.408 130.607C301.408 127.932 301.408 125.225 301.408 122.486C301.408 119.747 301.408 117.04 301.408 114.365C301.855 114.365 302.301 114.365 302.748 114.365C303.194 114.365 303.636 114.365 304.072 114.365C304.072 117.04 304.072 119.747 304.072 122.486C304.072 125.225 304.072 127.932 304.072 130.607C303.636 130.607 303.194 130.607 302.748 130.607C302.301 130.607 301.855 130.607 301.408 130.607ZM308.195 130.607C308.195 128.569 308.195 126.511 308.195 124.433C308.195 122.355 308.195 120.296 308.195 118.258C308.611 118.258 309.032 118.258 309.459 118.258C309.885 118.258 310.301 118.258 310.707 118.258C310.707 118.37 310.707 118.473 310.707 118.569C310.707 118.664 310.707 118.768 310.707 118.879C310.971 118.577 311.265 118.342 311.59 118.175C311.915 118.007 312.25 117.924 312.595 117.924C312.97 117.924 313.315 118.023 313.63 118.222C313.944 118.421 314.213 118.712 314.437 119.094C314.761 118.728 315.129 118.441 315.54 118.234C315.951 118.027 316.375 117.924 316.811 117.924C317.431 117.924 317.966 118.123 318.417 118.521C318.869 118.919 319.219 119.484 319.468 120.217C319.717 120.949 319.841 121.833 319.841 122.868C319.841 124.142 319.841 125.432 319.841 126.738C319.841 128.043 319.841 129.333 319.841 130.607C319.435 130.607 319.019 130.607 318.593 130.607C318.166 130.607 317.745 130.607 317.329 130.607C317.329 129.413 317.329 128.203 317.329 126.977C317.329 125.75 317.329 124.54 317.329 123.346C317.329 122.804 317.25 122.363 317.093 122.02C316.936 121.678 316.685 121.507 316.34 121.507C316.005 121.507 315.743 121.67 315.556 121.996C315.368 122.323 315.274 122.773 315.274 123.346C315.274 124.54 315.274 125.75 315.274 126.977C315.274 128.203 315.274 129.413 315.274 130.607C314.868 130.607 314.452 130.607 314.026 130.607C313.599 130.607 313.178 130.607 312.762 130.607C312.762 129.413 312.762 128.203 312.762 126.977C312.762 125.75 312.762 124.54 312.762 123.346C312.762 122.804 312.683 122.363 312.526 122.02C312.369 121.678 312.118 121.507 311.773 121.507C311.438 121.507 311.176 121.67 310.989 121.996C310.801 122.323 310.707 122.773 310.707 123.346C310.707 124.54 310.707 125.75 310.707 126.977C310.707 128.203 310.707 129.413 310.707 130.607C310.301 130.607 309.885 130.607 309.459 130.607C309.032 130.607 308.611 130.607 308.195 130.607ZM326.125 134.429C325.719 134.429 325.303 134.429 324.877 134.429C324.451 134.429 324.03 134.429 323.614 134.429C323.614 131.77 323.614 129.075 323.614 126.344C323.614 123.613 323.614 120.917 323.614 118.258C324.03 118.258 324.451 118.258 324.877 118.258C325.303 118.258 325.719 118.258 326.125 118.258C326.125 118.37 326.125 118.481 326.125 118.593C326.125 118.704 326.125 118.823 326.125 118.951C326.379 118.632 326.668 118.382 326.993 118.198C327.318 118.015 327.663 117.924 328.028 117.924C328.536 117.924 329.018 118.079 329.474 118.39C329.931 118.7 330.335 119.142 330.685 119.715C331.035 120.288 331.309 120.973 331.507 121.769C331.705 122.566 331.804 123.449 331.804 124.421C331.804 125.376 331.705 126.252 331.507 127.048C331.309 127.844 331.035 128.533 330.685 129.114C330.335 129.696 329.931 130.145 329.474 130.464C329.018 130.782 328.531 130.942 328.013 130.942C327.648 130.942 327.305 130.85 326.985 130.667C326.666 130.484 326.379 130.225 326.125 129.891C326.125 130.639 326.125 131.395 326.125 132.16C326.125 132.924 326.125 133.681 326.125 134.429ZM327.678 127.454C328.175 127.454 328.569 127.18 328.858 126.63C329.147 126.081 329.292 125.344 329.292 124.421C329.292 123.497 329.147 122.765 328.858 122.223C328.569 121.682 328.175 121.411 327.678 121.411C327.191 121.411 326.8 121.686 326.506 122.235C326.212 122.785 326.065 123.513 326.065 124.421C326.065 125.328 326.212 126.061 326.506 126.618C326.8 127.176 327.191 127.454 327.678 127.454ZM340.524 130.607C340.524 130.48 340.524 130.356 340.524 130.237C340.524 130.118 340.524 130.002 340.524 129.891C340.27 130.225 339.983 130.484 339.664 130.667C339.344 130.85 339.002 130.942 338.636 130.942C338.119 130.942 337.631 130.786 337.175 130.476C336.718 130.165 336.315 129.719 335.965 129.138C335.614 128.557 335.34 127.868 335.142 127.072C334.945 126.276 334.846 125.392 334.846 124.421C334.846 123.433 334.945 122.542 335.142 121.745C335.34 120.949 335.614 120.269 335.965 119.703C336.315 119.138 336.718 118.7 337.175 118.39C337.631 118.079 338.114 117.924 338.621 117.924C338.986 117.924 339.331 118.015 339.656 118.198C339.981 118.382 340.27 118.632 340.524 118.951C340.524 118.823 340.524 118.704 340.524 118.593C340.524 118.481 340.524 118.37 340.524 118.258C340.94 118.258 341.361 118.258 341.787 118.258C342.214 118.258 342.63 118.258 343.036 118.258C343.036 120.296 343.036 122.355 343.036 124.433C343.036 126.511 343.036 128.569 343.036 130.607C342.63 130.607 342.214 130.607 341.787 130.607C341.361 130.607 340.94 130.607 340.524 130.607ZM338.971 127.454C339.458 127.454 339.849 127.176 340.143 126.618C340.438 126.061 340.585 125.328 340.585 124.421C340.585 123.513 340.438 122.785 340.143 122.235C339.849 121.686 339.458 121.411 338.971 121.411C338.474 121.411 338.081 121.682 337.791 122.223C337.502 122.765 337.357 123.497 337.357 124.421C337.357 125.344 337.502 126.081 337.791 126.63C338.081 127.18 338.474 127.454 338.971 127.454ZM346.504 124.421C346.504 123.211 346.661 122.148 346.976 121.232C347.29 120.316 347.727 119.58 348.285 119.022C348.843 118.465 349.493 118.127 350.234 118.007C350.974 117.888 351.766 118.027 352.608 118.425C352.608 119.03 352.608 119.644 352.608 120.265C352.608 120.886 352.608 121.499 352.608 122.104C352.02 121.658 351.456 121.451 350.919 121.483C350.381 121.515 349.939 121.773 349.594 122.259C349.249 122.745 349.077 123.465 349.077 124.421C349.077 125.376 349.249 126.097 349.594 126.582C349.939 127.068 350.381 127.323 350.919 127.347C351.456 127.371 352.02 127.168 352.608 126.738C352.608 127.343 352.608 127.956 352.608 128.577C352.608 129.198 352.608 129.811 352.608 130.416C351.766 130.814 350.974 130.954 350.234 130.834C349.493 130.715 348.843 130.376 348.285 129.819C347.727 129.262 347.29 128.525 346.976 127.61C346.661 126.694 346.504 125.631 346.504 124.421ZM357.218 130.607C357.218 129.142 357.218 127.669 357.218 126.188C357.218 124.707 357.218 123.242 357.218 121.793C357.015 121.793 356.81 121.793 356.602 121.793C356.394 121.793 356.188 121.793 355.985 121.793C355.985 121.204 355.985 120.615 355.985 120.026C355.985 119.437 355.985 118.847 355.985 118.258C356.188 118.258 356.394 118.258 356.602 118.258C356.81 118.258 357.015 118.258 357.218 118.258C357.218 117.701 357.218 117.147 357.218 116.598C357.218 116.049 357.218 115.503 357.218 114.962C357.634 114.962 358.056 114.962 358.482 114.962C358.908 114.962 359.324 114.962 359.73 114.962C359.73 115.503 359.73 116.049 359.73 116.598C359.73 117.147 359.73 117.701 359.73 118.258C359.964 118.258 360.202 118.258 360.446 118.258C360.689 118.258 360.928 118.258 361.161 118.258C361.161 118.847 361.161 119.437 361.161 120.026C361.161 120.615 361.161 121.204 361.161 121.793C360.928 121.793 360.689 121.793 360.446 121.793C360.202 121.793 359.964 121.793 359.73 121.793C359.73 123.242 359.73 124.707 359.73 126.188C359.73 127.669 359.73 129.142 359.73 130.607C359.324 130.607 358.908 130.607 358.482 130.607C358.056 130.607 357.634 130.607 357.218 130.607Z" fill="black"/>
<path d="M97.4276 34.4452L62.8553 0V34.4452H11V120.555L45.5659 155V68.8903H97.4276V120.555L132 155V68.8903L97.4276 34.4452Z" fill="#0C7C00"/>
<path d="M246.22 13.333C382.205 13.3277 492.442 46.9047 492.444 88.329C492.445 118.555 433.746 144.604 349.186 156.483C420.145 145.166 468.574 122.523 468.573 96.4331C468.571 59.025 369.02 28.7033 246.221 28.7082C123.42 28.713 23.8734 59.0424 23.875 96.4505C23.8761 122.54 72.3041 145.178 143.262 156.49C58.7026 144.618 0.00406668 118.574 0.00278779 88.3484C0.00103509 46.924 110.236 13.3384 246.22 13.333Z" fill="black"/>
<path d="M149.825 62.6198C148.742 62.6198 147.762 62.3067 146.884 61.6805C146.007 61.0543 145.307 60.2268 144.784 59.1981C144.261 58.1693 144 57.0288 144 55.7764C144 54.524 144.261 53.3946 144.784 52.3882C145.307 51.3818 146.007 50.5655 146.884 49.9393C147.762 49.3131 148.742 49 149.825 49C150.87 49 151.832 49.3131 152.709 49.9393C153.586 50.5655 154.286 51.3818 154.809 52.3882C155.332 53.3946 155.593 54.524 155.593 55.7764C155.593 57.0288 155.332 58.1693 154.809 59.1981C154.286 60.2268 153.586 61.0543 152.709 61.6805C151.832 62.3067 150.87 62.6198 149.825 62.6198ZM145.176 101.265C145.176 95.5399 145.176 89.7588 145.176 83.9217C145.176 78.0847 145.176 72.3035 145.176 66.5783C146.707 66.5783 148.256 66.5783 149.825 66.5783C151.393 66.5783 152.924 66.5783 154.417 66.5783C154.417 72.3035 154.417 78.0847 154.417 83.9217C154.417 89.7588 154.417 95.5399 154.417 101.265C152.924 101.265 151.393 101.265 149.825 101.265C148.256 101.265 146.707 101.265 145.176 101.265ZM160.858 101.265C160.858 95.5399 160.858 89.7588 160.858 83.9217C160.858 78.0847 160.858 72.3035 160.858 66.5783C162.389 66.5783 163.938 66.5783 165.506 66.5783C167.074 66.5783 168.605 66.5783 170.099 66.5783C170.099 66.8914 170.099 67.1821 170.099 67.4505C170.099 67.7188 170.099 68.0096 170.099 68.3227C171.107 67.4728 172.236 66.8131 173.487 66.3434C174.738 65.8738 176.091 65.639 177.548 65.639C179.676 65.639 181.552 66.2204 183.176 67.3834C184.8 68.5463 186.07 70.2125 186.985 72.3818C187.899 74.5511 188.357 77.1565 188.357 80.1981C188.357 83.6869 188.357 87.1981 188.357 90.7316C188.357 94.2652 188.357 97.7764 188.357 101.265C186.863 101.265 185.332 101.265 183.764 101.265C182.196 101.265 180.647 101.265 179.116 101.265C179.116 98.0447 179.116 94.7796 179.116 91.4696C179.116 88.1597 179.116 84.8946 179.116 81.6741C179.116 79.885 178.77 78.4425 178.08 77.3466C177.389 76.2508 176.297 75.7029 174.803 75.7029C173.31 75.7029 172.152 76.2173 171.331 77.246C170.51 78.2748 170.099 79.7508 170.099 81.6741C170.099 84.8946 170.099 88.1597 170.099 91.4696C170.099 94.7796 170.099 98.0447 170.099 101.265C168.605 101.265 167.074 101.265 165.506 101.265C163.938 101.265 162.389 101.265 160.858 101.265ZM194.069 101.265C194.069 95.5399 194.069 89.7588 194.069 83.9217C194.069 78.0847 194.069 72.3035 194.069 66.5783C195.6 66.5783 197.15 66.5783 198.718 66.5783C200.286 66.5783 201.817 66.5783 203.31 66.5783C203.31 66.8914 203.31 67.1821 203.31 67.4505C203.31 67.7188 203.31 68.0096 203.31 68.3227C204.319 67.4728 205.448 66.8131 206.699 66.3434C207.95 65.8738 209.303 65.639 210.759 65.639C212.887 65.639 214.764 66.2204 216.388 67.3834C218.012 68.5463 219.281 70.2125 220.196 72.3818C221.111 74.5511 221.568 77.1565 221.568 80.1981C221.568 83.6869 221.568 87.1981 221.568 90.7316C221.568 94.2652 221.568 97.7764 221.568 101.265C220.075 101.265 218.544 101.265 216.976 101.265C215.408 101.265 213.858 101.265 212.327 101.265C212.327 98.0447 212.327 94.7796 212.327 91.4696C212.327 88.1597 212.327 84.8946 212.327 81.6741C212.327 79.885 211.982 78.4425 211.291 77.3466C210.601 76.2508 209.508 75.7029 208.015 75.7029C206.521 75.7029 205.364 76.2173 204.543 77.246C203.721 78.2748 203.31 79.7508 203.31 81.6741C203.31 84.8946 203.31 88.1597 203.31 91.4696C203.31 94.7796 203.31 98.0447 203.31 101.265C201.817 101.265 200.286 101.265 198.718 101.265C197.15 101.265 195.6 101.265 194.069 101.265ZM241.002 102.339C238.837 102.339 236.821 101.88 234.954 100.963C233.087 100.046 231.463 98.7492 230.081 97.0719C228.7 95.3946 227.626 93.4377 226.861 91.2013C226.096 88.9649 225.713 86.5272 225.713 83.8882C225.713 81.2492 226.096 78.8115 226.861 76.5751C227.626 74.3387 228.7 72.393 230.081 70.738C231.463 69.0831 233.087 67.7971 234.954 66.8802C236.821 65.9633 238.837 65.5048 241.002 65.5048C243.205 65.5048 245.231 65.9633 247.079 66.8802C248.927 67.7971 250.542 69.0831 251.924 70.738C253.305 72.393 254.379 74.3387 255.144 76.5751C255.909 78.8115 256.292 81.2492 256.292 83.8882C256.292 86.5272 255.909 88.9649 255.144 91.2013C254.379 93.4377 253.305 95.3946 251.924 97.0719C250.542 98.7492 248.927 100.046 247.079 100.963C245.231 101.88 243.205 102.339 241.002 102.339ZM241.002 92.3419C242.832 92.3419 244.297 91.5479 245.399 89.9601C246.5 88.3722 247.051 86.3482 247.051 83.8882C247.051 81.3834 246.5 79.3594 245.399 77.8163C244.297 76.2732 242.832 75.5016 241.002 75.5016C239.173 75.5016 237.707 76.2732 236.606 77.8163C235.505 79.3594 234.954 81.3834 234.954 83.8882C234.954 86.3482 235.505 88.3722 236.606 89.9601C237.707 91.5479 239.173 92.3419 241.002 92.3419ZM266.989 101.265C265.346 95.5399 263.676 89.7588 261.977 83.9217C260.278 78.0847 258.607 72.3035 256.964 66.5783C258.57 66.5783 260.185 66.5783 261.809 66.5783C263.433 66.5783 265.048 66.5783 266.653 66.5783C267.624 70.1118 268.604 73.6565 269.594 77.2125C270.583 80.7684 271.544 84.3131 272.478 87.8466C273.449 84.3131 274.419 80.7684 275.39 77.2125C276.361 73.6565 277.313 70.1118 278.246 66.5783C279.815 66.5783 281.401 66.5783 283.007 66.5783C284.612 66.5783 286.199 66.5783 287.767 66.5783C286.125 72.3035 284.454 78.0847 282.755 83.9217C281.056 89.7588 279.385 95.5399 277.742 101.265C275.988 101.265 274.195 101.265 272.366 101.265C270.536 101.265 268.744 101.265 266.989 101.265ZM314.93 99.655C312.354 100.952 309.797 101.757 307.258 102.07C304.719 102.383 302.32 102.216 300.061 101.567C297.802 100.919 295.795 99.8115 294.04 98.246C292.285 96.6805 290.913 94.6901 289.924 92.2748C288.934 89.8594 288.44 87.0639 288.44 83.8882C288.44 81.2492 288.804 78.8227 289.532 76.6086C290.26 74.3946 291.296 72.4489 292.64 70.7716C293.984 69.0942 295.571 67.7971 297.401 66.8802C299.23 65.9633 301.228 65.5048 303.393 65.5048C305.335 65.5048 307.09 65.885 308.658 66.6454C310.226 67.4057 311.589 68.468 312.746 69.8323C313.904 71.1965 314.837 72.8179 315.546 74.6965C316.256 76.5751 316.704 78.6326 316.891 80.869C317.077 83.1054 316.965 85.476 316.555 87.9808C313.493 87.9808 310.413 87.9808 307.314 87.9808C304.215 87.9808 301.134 87.9808 298.073 87.9808C298.782 89.6805 299.967 90.8882 301.629 91.6038C303.291 92.3195 305.269 92.5431 307.566 92.2748C309.862 92.0064 312.317 91.2907 314.93 90.1278C314.93 91.6933 314.93 93.2811 314.93 94.8914C314.93 96.5016 314.93 98.0895 314.93 99.655ZM303.169 75.4345C302.086 75.4345 301.088 75.7923 300.173 76.508C299.258 77.2236 298.558 78.3195 298.073 79.7955C299.753 79.7955 301.442 79.7955 303.141 79.7955C304.84 79.7955 306.53 79.7955 308.21 79.7955C307.762 78.2748 307.099 77.1677 306.221 76.4744C305.344 75.7811 304.327 75.4345 303.169 75.4345ZM321.763 101.265C321.763 95.5399 321.763 89.7588 321.763 83.9217C321.763 78.0847 321.763 72.3035 321.763 66.5783C323.294 66.5783 324.843 66.5783 326.412 66.5783C327.98 66.5783 329.511 66.5783 331.004 66.5783C331.004 66.8914 331.004 67.1821 331.004 67.4505C331.004 67.7188 331.004 68.0096 331.004 68.3227C332.012 67.4728 333.142 66.8131 334.393 66.3434C335.643 65.8738 336.997 65.639 338.453 65.639C340.581 65.639 342.457 66.2204 344.082 67.3834C345.706 68.5463 346.975 70.2125 347.89 72.3818C348.805 74.5511 349.262 77.1565 349.262 80.1981C349.262 83.6869 349.262 87.1981 349.262 90.7316C349.262 94.2652 349.262 97.7764 349.262 101.265C347.769 101.265 346.238 101.265 344.67 101.265C343.101 101.265 341.552 101.265 340.021 101.265C340.021 98.0447 340.021 94.7796 340.021 91.4696C340.021 88.1597 340.021 84.8946 340.021 81.6741C340.021 79.885 339.676 78.4425 338.985 77.3466C338.294 76.2508 337.202 75.7029 335.709 75.7029C334.215 75.7029 333.058 76.2173 332.236 77.246C331.415 78.2748 331.004 79.7508 331.004 81.6741C331.004 84.8946 331.004 88.1597 331.004 91.4696C331.004 94.7796 331.004 98.0447 331.004 101.265C329.511 101.265 327.98 101.265 326.412 101.265C324.843 101.265 323.294 101.265 321.763 101.265ZM377.097 90.5303C377.097 93.3035 376.453 95.5735 375.165 97.3403C373.877 99.107 372.15 100.393 369.984 101.198C367.819 102.003 365.401 102.35 362.732 102.238C360.062 102.126 357.346 101.601 354.583 100.661C354.583 98.9617 354.583 97.2173 354.583 95.4281C354.583 93.639 354.583 91.8946 354.583 90.1949C356.151 91.0447 357.719 91.7045 359.287 92.1741C360.855 92.6438 362.274 92.9233 363.544 93.0128C364.813 93.1022 365.84 92.9792 366.624 92.6438C367.408 92.3083 367.8 91.738 367.8 90.9329C367.8 90.3067 367.473 89.8147 366.82 89.4569C366.167 89.099 365.317 88.7748 364.272 88.484C363.226 88.1933 362.116 87.8355 360.939 87.4105C359.763 86.9856 358.652 86.3818 357.607 85.599C356.562 84.8163 355.712 83.7652 355.059 82.4457C354.405 81.1262 354.079 79.4153 354.079 77.3131C354.079 74.8083 354.685 72.6725 355.899 70.9057C357.112 69.139 358.746 67.7971 360.799 66.8802C362.853 65.9633 365.149 65.5048 367.688 65.5048C370.227 65.5048 372.822 66.0192 375.473 67.0479C375.473 68.7476 375.473 70.492 375.473 72.2811C375.473 74.0703 375.473 75.8147 375.473 77.5144C373.382 76.3067 371.422 75.5016 369.592 75.099C367.763 74.6965 366.288 74.6406 365.168 74.9313C364.048 75.222 363.488 75.8371 363.488 76.7764C363.488 77.4026 363.814 77.8834 364.468 78.2188C365.121 78.5543 365.961 78.8562 366.988 79.1246C368.015 79.393 369.116 79.7508 370.292 80.1981C371.469 80.6454 372.57 81.2604 373.597 82.0431C374.624 82.8259 375.464 83.8994 376.117 85.2636C376.77 86.6278 377.097 88.3834 377.097 90.5303ZM381.858 101.265C381.858 93.1693 381.858 85.0064 381.858 76.7764C381.858 68.5463 381.858 60.3834 381.858 52.2875C383.388 52.2875 384.938 52.2875 386.506 52.2875C388.074 52.2875 389.605 52.2875 391.099 52.2875C391.099 56.6709 391.099 61.1214 391.099 65.639C391.099 70.1565 391.099 74.607 391.099 78.9904C392.443 76.9329 393.787 74.8642 395.131 72.7843C396.475 70.7045 397.819 68.6358 399.163 66.5783C400.956 66.5783 402.757 66.5783 404.568 66.5783C406.379 66.5783 408.18 66.5783 409.973 66.5783C408.218 69.2173 406.435 71.8786 404.624 74.5623C402.813 77.246 401.03 79.9073 399.276 82.5463C401.142 85.6326 403.019 88.7524 404.904 91.9058C406.79 95.0591 408.647 98.1789 410.477 101.265C408.647 101.265 406.818 101.265 404.988 101.265C403.159 101.265 401.329 101.265 399.5 101.265C398.118 98.8946 396.718 96.4904 395.299 94.0527C393.88 91.615 392.48 89.2109 391.099 86.8403C391.099 89.2109 391.099 91.615 391.099 94.0527C391.099 96.4904 391.099 98.8946 391.099 101.265C389.605 101.265 388.074 101.265 386.506 101.265C384.938 101.265 383.388 101.265 381.858 101.265ZM416.245 112C416.992 109.629 417.767 107.248 418.57 104.855C419.372 102.462 420.147 100.102 420.894 97.7764C419.139 92.6326 417.356 87.4329 415.545 82.1773C413.734 76.9217 411.952 71.722 410.197 66.5783C411.84 66.5783 413.482 66.5783 415.125 66.5783C416.768 66.5783 418.392 66.5783 419.998 66.5783C420.969 69.4409 421.949 72.3482 422.938 75.3003C423.927 78.2524 424.908 81.1821 425.878 84.0895C426.774 81.1821 427.689 78.2524 428.623 75.3003C429.556 72.3482 430.471 69.4409 431.367 66.5783C432.972 66.5783 434.578 66.5783 436.183 66.5783C437.789 66.5783 439.395 66.5783 441 66.5783C438.498 74.0479 435.987 81.6182 433.467 89.2891C430.947 96.9601 428.436 104.53 425.934 112C424.329 112 422.714 112 421.09 112C419.466 112 417.851 112 416.245 112Z" fill="#0D006F"/>
</svg>
